<svg width="116" height="26" viewBox="0 0 116 26" fill="none" xmlns="http://www.w3.org/2000/svg">
<g clip-path="url(#clip0_604_3874)">
<path d="M25.7734 25.5719V10.8204C25.7734 8.9132 26.1972 7.1617 27.0833 5.56589C27.9694 3.97008 29.2022 2.68565 30.8588 1.75152C32.5154 0.817389 34.4802 0.311401 36.7917 0.311401C37.9089 0.311401 38.9877 0.46709 40.0278 0.739545C41.068 1.012 42.0312 1.47907 42.9172 2.10182C43.8033 2.72458 44.5738 3.50302 45.1902 4.43715H45.2288C45.8452 3.50302 46.6157 2.72458 47.5018 2.10182C48.3879 1.47907 49.351 1.012 50.3912 0.739545C51.4314 0.46709 52.5101 0.311401 53.6273 0.311401C55.9774 0.311401 57.9422 0.778467 59.5987 1.75152C61.2168 2.68565 62.4882 3.97008 63.3742 5.56589C64.2603 7.1617 64.6841 8.9132 64.6841 10.8204V25.5719H59.3676V10.8204C59.3676 9.76949 59.0979 8.79643 58.5971 7.90122C58.0963 7.04493 57.4028 6.34434 56.5552 5.79943C55.7077 5.25452 54.7445 5.02098 53.6658 5.02098C52.5871 5.02098 51.624 5.29344 50.7764 5.79943C49.9289 6.30541 49.1969 7.00601 48.6961 7.90122C48.1952 8.75751 47.9255 9.73056 47.9255 10.8204V25.5719H42.609V10.8204C42.609 9.76949 42.3394 8.79643 41.8 7.90122C41.2607 7.04493 40.5672 6.34434 39.7196 5.79943C38.8721 5.29344 37.9089 5.02098 36.8302 5.02098C35.7515 5.02098 34.8269 5.29344 33.9408 5.79943C33.0547 6.30541 32.3998 7.00601 31.899 7.90122C31.3981 8.75751 31.1285 9.73056 31.1285 10.8204V25.5719H25.812H25.7734Z" fill="black"/>
<path d="M68.8457 25.4162V0.583862H74.2393V25.4162H68.8457Z" fill="black"/>
<path d="M78.3613 25.4162V7.62877C78.3613 5.41021 78.9777 3.69764 80.172 2.45213C81.3663 1.20662 83.0614 0.583862 85.1803 0.583862H90.9591V5.37129H86.1435C85.3729 5.37129 84.7951 5.60482 84.3713 6.07189C83.9475 6.53895 83.7549 7.16171 83.7549 7.90123V25.4162H78.3613Z" fill="black"/>
<path d="M102.054 26C99.7808 26 97.7774 25.4162 96.1209 24.2485C94.4643 23.0808 93.1929 21.524 92.2683 19.5389C91.3822 17.5928 90.9199 15.4132 90.9199 13.0389C90.9199 10.6647 91.4208 8.36826 92.4609 6.38323C93.4626 4.43713 94.9266 2.88024 96.8528 1.71257C98.7406 0.54491 101.014 0 103.633 0C106.253 0 108.449 0.583832 110.298 1.71257C112.147 2.88024 113.534 4.43713 114.536 6.38323C115.538 8.32934 116 10.5479 116 12.9222V25.3772H110.606V20.7455H110.529C110.067 21.6407 109.451 22.497 108.68 23.3144C107.91 24.0928 106.985 24.7545 105.906 25.2216C104.828 25.7275 103.518 25.9611 102.054 25.9611V26ZM103.518 21.2126C104.943 21.2126 106.176 20.8623 107.216 20.1228C108.256 19.3832 109.104 18.4102 109.682 17.1647C110.26 15.9192 110.568 14.518 110.529 12.9611C110.529 11.4042 110.26 10.003 109.682 8.79641C109.104 7.58982 108.333 6.61677 107.293 5.87725C106.253 5.13772 105.02 4.78743 103.595 4.78743C102.169 4.78743 100.821 5.13772 99.7422 5.87725C98.6635 6.61677 97.8545 7.58982 97.2766 8.83533C96.6987 10.0808 96.4291 11.482 96.4291 13.0389C96.4291 14.5958 96.6987 15.9581 97.2766 17.2036C97.8545 18.4491 98.6635 19.4611 99.7037 20.1617C100.744 20.9012 102.015 21.2515 103.556 21.2515L103.518 21.2126Z" fill="black"/>
<path d="M3.39024 25.5719C2.46563 25.5719 1.65659 25.2216 1.00166 24.5599C0.346729 23.8982 0 23.0808 0 22.1467C0 21.2126 0.346729 20.4341 1.00166 19.7335C1.69512 19.0719 2.50415 18.7216 3.42876 18.7216C4.35337 18.7216 5.12388 19.0719 5.77881 19.7335C6.43374 20.4341 6.78047 21.2126 6.78047 22.1467C6.78047 23.0808 6.43374 23.8982 5.77881 24.5599C5.08535 25.2216 4.31485 25.5719 3.39024 25.5719Z" fill="#F88B59"/>
<path d="M3.39024 7.04486C2.46563 7.04486 1.65659 6.69456 1.00166 6.03289C0.346729 5.37121 0 4.55384 0 3.61971C0 2.68558 0.346729 1.86821 1.00166 1.20654C1.69512 0.505939 2.50415 0.15564 3.42876 0.15564C4.35337 0.15564 5.12388 0.505939 5.77881 1.16762C6.43374 1.86821 6.78047 2.64666 6.78047 3.58079C6.78047 4.51492 6.43374 5.33229 5.77881 5.99396C5.08535 6.65564 4.31485 7.00594 3.39024 7.00594V7.04486Z" fill="#F88B59"/>
<path d="M17.6832 7.04488C16.7586 7.04488 15.9496 6.69458 15.2946 6.0329C14.6397 5.37123 14.293 4.55386 14.293 3.61973C14.293 2.6856 14.6397 1.90716 15.2946 1.20656C15.9881 0.544879 16.7971 0.19458 17.7217 0.19458C18.6463 0.19458 19.4168 0.544879 20.0718 1.20656C20.7267 1.90716 21.0734 2.6856 21.0734 3.61973C21.0734 4.55386 20.7267 5.37123 20.0718 6.0329C19.3783 6.69458 18.6078 7.04488 17.6832 7.04488Z" fill="#F88B59"/>
</g>
<defs>
<clipPath id="clip0_604_3874">
<rect width="116" height="26" fill="white"/>
</clipPath>
</defs>
</svg>
